<svg id="Layer_1" data-name="Layer 1" xmlns="http://www.w3.org/2000/svg" viewBox="0 0 200 60"><defs><style>.cls-1{fill:red;}.cls-2{fill:#fff;}.cls-3{fill:#282828;}</style></defs><title>youtube_logo</title><path class="cls-1" d="M63,14.87a7.89,7.89,0,0,0-5.56-5.56C52.54,8,32.88,8,32.88,8S13.23,8,8.32,9.31a7.89,7.89,0,0,0-5.56,5.56C1.45,19.77,1.45,30,1.45,30s0,10.23,1.31,15.13a7.89,7.89,0,0,0,5.56,5.56C13.23,52,32.88,52,32.88,52s19.66,0,24.56-1.31A7.89,7.89,0,0,0,63,45.13C64.31,40.23,64.31,30,64.31,30S64.31,19.77,63,14.87Z"/><polygon class="cls-2" points="26.6 39.43 42.93 30 26.6 20.57 26.6 39.43"/><g id="youtube-paths"><path class="cls-3" d="M92.69,48A6.84,6.84,0,0,1,90,44.12a25.78,25.78,0,0,1-.79-7.06v-4a23.19,23.19,0,0,1,.9-7.15A7.16,7.16,0,0,1,93,22a9.11,9.11,0,0,1,5-1.24,8.54,8.54,0,0,1,4.9,1.26,7.22,7.22,0,0,1,2.7,3.93,24.09,24.09,0,0,1,.85,7.12v4a24.67,24.67,0,0,1-.83,7.08,6.9,6.9,0,0,1-2.7,3.91,9.08,9.08,0,0,1-5.06,1.24A9,9,0,0,1,92.69,48Zm7-4.32a13.54,13.54,0,0,0,.52-4.4V30.72a13.14,13.14,0,0,0-.52-4.34,1.87,1.87,0,0,0-3.6,0,13.37,13.37,0,0,0-.52,4.34v8.59a13.94,13.94,0,0,0,.49,4.4,1.81,1.81,0,0,0,1.8,1.35A1.85,1.85,0,0,0,99.66,43.71Z"/><path class="cls-3" d="M188.16,37.13v1.39a35.45,35.45,0,0,0,.16,4,3.72,3.72,0,0,0,.65,1.93,1.87,1.87,0,0,0,1.53.61A1.92,1.92,0,0,0,192.41,44a9.5,9.5,0,0,0,.56-3.6l5.35.31a8.63,8.63,0,0,1,0,1q0,3.83-2.09,5.71a8.49,8.49,0,0,1-5.91,1.89q-4.59,0-6.43-2.88c-1.23-1.92-1.84-4.88-1.84-8.9V32.67c0-4.14.64-7.15,1.91-9.06s3.45-2.85,6.54-2.85a8.63,8.63,0,0,1,4.9,1.17,6.29,6.29,0,0,1,2.41,3.64,26.51,26.51,0,0,1,.7,6.83v4.72H188.16Zm.79-11.6a3.9,3.9,0,0,0-.63,1.91,35.91,35.91,0,0,0-.16,4v2h4.54v-2a33.25,33.25,0,0,0-.18-4,3.88,3.88,0,0,0-.65-1.93,1.81,1.81,0,0,0-1.46-.56A1.73,1.73,0,0,0,189,25.53Z"/><path class="cls-3" d="M77.59,36.61,70.53,11.12h6.16l2.47,11.55c.63,2.85,1.09,5.27,1.39,7.28h.18q.31-2.16,1.39-7.24l2.56-11.6h6.16L83.7,36.61V48.84H77.59Z"/><path class="cls-3" d="M126.45,21.28V48.83H121.6l-.54-3.37h-.13A6.34,6.34,0,0,1,115,49.28a4.67,4.67,0,0,1-4-1.8q-1.31-1.8-1.3-5.62V21.28h6.2V41.51a6.17,6.17,0,0,0,.4,2.63,1.41,1.41,0,0,0,1.35.79,2.73,2.73,0,0,0,1.55-.49,3.1,3.1,0,0,0,1.1-1.26V21.28Z"/><path class="cls-3" d="M158.27,21.28V48.83h-4.85l-.54-3.37h-.13a6.34,6.34,0,0,1-5.93,3.82,4.67,4.67,0,0,1-4-1.8q-1.31-1.8-1.3-5.62V21.28h6.2V41.51a6.17,6.17,0,0,0,.4,2.63,1.41,1.41,0,0,0,1.35.79,2.73,2.73,0,0,0,1.55-.49,3.1,3.1,0,0,0,1.1-1.26V21.28Z"/><path class="cls-3" d="M143.31,16.11h-6.16V48.83h-6.07V16.11h-6.16v-5H143.3v5Z"/><path class="cls-3" d="M178.8,25.69A7.12,7.12,0,0,0,177,21.91a4.88,4.88,0,0,0-3.46-1.17,5.69,5.69,0,0,0-3.19,1A6.52,6.52,0,0,0,168,24.25h0V9.73h-6V48.84h5.12l.63-2.61h.13a5.26,5.26,0,0,0,2.16,2.2,6.38,6.38,0,0,0,3.19.81,4.89,4.89,0,0,0,4.63-2.9q1.49-2.9,1.48-9.06V32.92A35.9,35.9,0,0,0,178.8,25.69Zm-5.69,11.24a33.91,33.91,0,0,1-.25,4.72,5.05,5.05,0,0,1-.83,2.43,1.91,1.91,0,0,1-1.57.72,2.91,2.91,0,0,1-1.42-.36A2.75,2.75,0,0,1,168,43.36V27.71a3.91,3.91,0,0,1,1.08-1.84,2.38,2.38,0,0,1,1.66-.72,1.68,1.68,0,0,1,1.46.74,5.82,5.82,0,0,1,.72,2.49,48,48,0,0,1,.2,5v3.56Z"/></g></svg>